<?xml version="1.0" standalone="no"?><svg xmlns="http://www.w3.org/2000/svg" viewBox="0 0 1440 320"><path fill="#FEFADD" fill-opacity="1" d="M0,288L21.8,256C43.6,224,87,160,131,154.7C174.5,149,218,203,262,234.7C305.5,267,349,277,393,266.7C436.4,256,480,224,524,224C567.3,224,611,256,655,261.3C698.2,267,742,245,785,218.7C829.1,192,873,160,916,170.7C960,181,1004,235,1047,234.7C1090.9,235,1135,181,1178,165.3C1221.8,149,1265,171,1309,186.7C1352.7,203,1396,213,1418,218.7L1440,224L1440,320L1418.2,320C1396.4,320,1353,320,1309,320C1265.5,320,1222,320,1178,320C1134.5,320,1091,320,1047,320C1003.6,320,960,320,916,320C872.7,320,829,320,785,320C741.8,320,698,320,655,320C610.9,320,567,320,524,320C480,320,436,320,393,320C349.1,320,305,320,262,320C218.2,320,175,320,131,320C87.3,320,44,320,22,320L0,320Z"></path></svg>