<?xml version="1.0" standalone="no"?><svg xmlns="http://www.w3.org/2000/svg" viewBox="0 0 1440 320"><path fill="#FEFADD" fill-opacity="1" d="M0,0L10.4,10.7C20.9,21,42,43,63,64C83.5,85,104,107,125,128C146.1,149,167,171,188,170.7C208.7,171,230,149,250,149.3C271.3,149,292,171,313,170.7C333.9,171,355,149,376,133.3C396.5,117,417,107,438,122.7C459.1,139,480,181,501,197.3C521.7,213,543,203,563,176C584.3,149,605,107,626,101.3C647,96,668,128,689,138.7C709.6,149,730,139,751,165.3C772.2,192,793,256,814,245.3C834.8,235,856,149,877,106.7C897.4,64,918,64,939,90.7C960,117,981,171,1002,165.3C1022.6,160,1043,96,1064,101.3C1085.2,107,1106,181,1127,197.3C1147.8,213,1169,171,1190,149.3C1210.4,128,1231,128,1252,154.7C1273,181,1294,235,1315,234.7C1335.7,235,1357,181,1377,149.3C1398.3,117,1419,107,1430,101.3L1440,96L1440,320L1429.6,320C1419.1,320,1398,320,1377,320C1356.5,320,1336,320,1315,320C1293.9,320,1273,320,1252,320C1231.3,320,1210,320,1190,320C1168.7,320,1148,320,1127,320C1106.1,320,1085,320,1064,320C1043.5,320,1023,320,1002,320C980.9,320,960,320,939,320C918.3,320,897,320,877,320C855.7,320,835,320,814,320C793,320,772,320,751,320C730.4,320,710,320,689,320C667.8,320,647,320,626,320C605.2,320,584,320,563,320C542.6,320,522,320,501,320C480,320,459,320,438,320C417.4,320,397,320,376,320C354.8,320,334,320,313,320C292.2,320,271,320,250,320C229.6,320,209,320,188,320C167,320,146,320,125,320C104.3,320,83,320,63,320C41.7,320,21,320,10,320L0,320Z"></path></svg>